<svg width="31" height="31" viewBox="0 0 31 31" fill="none" xmlns="http://www.w3.org/2000/svg">
<path d="M30.7413 13.6787C31.151 14.8915 30.8672 16.1382 30.9686 17.3654C31.1596 19.6751 30.4636 21.7942 29.2564 23.7967C28.2836 25.4105 27.0357 26.8351 25.367 27.93C24.7103 28.361 24.0257 28.7588 23.3444 29.1589C23.1773 29.257 22.9732 29.305 22.7345 29.3752C22.3018 29.3889 21.9111 29.4865 21.5619 29.2468C21.5224 29.2197 21.4243 29.2563 21.3548 29.2693C21.0208 29.3317 20.6856 29.3902 20.3542 29.4625C20.2066 29.4947 20.0651 29.5523 19.9242 29.6053C19.7937 29.6544 19.6676 29.7129 19.5396 29.7385C19.5396 29.5565 19.5396 29.4032 19.5442 29.2256C19.603 28.9731 19.6823 28.7469 19.7033 28.5164C19.7198 28.3352 19.7222 28.1885 19.9455 28.1002C20.0187 28.0713 20.087 27.926 20.0724 27.8464C20.0266 27.5974 19.9201 27.3692 19.5796 27.3104C19.5566 27.2935 19.5446 27.2827 19.5256 27.2511C19.4975 27.1935 19.4773 27.1558 19.4381 27.1052C19.1258 26.7025 18.7673 26.3393 18.5504 25.918C17.6378 24.1459 17.5696 22.25 17.6078 20.3225C17.5825 19.0627 17.5627 17.8242 17.5338 16.5577C17.448 16.2608 17.39 15.9862 17.2909 15.724C16.9312 14.7728 16.1927 14.139 15.1802 13.7341C14.8909 13.6184 14.6193 13.4674 14.2511 13.2898C14.5222 13.1787 14.6943 13.091 14.8786 13.0353C15.8439 12.7434 16.7055 12.2919 17.4584 11.6828C17.7861 11.4177 18.0751 11.1146 18.3791 10.851C18.2819 11.1132 18.3599 11.3953 18.0524 11.587C17.876 11.6969 17.7715 11.9282 17.6975 12.1238C17.6718 12.1916 17.8411 12.4031 17.9118 12.3995C18.1336 12.3882 18.3665 12.3332 18.5654 12.2428C18.7412 12.1628 18.8407 12.0092 18.7238 11.8074C18.6896 11.7483 18.7186 11.66 18.7186 11.5851C19.0244 11.8365 19.3116 11.9557 19.7229 11.8066C19.41 11.5436 19.4757 11.2864 19.6702 11.0159C19.7195 10.9473 19.7293 10.8325 19.7067 10.7499C19.5994 10.358 19.4691 9.97109 19.3611 9.5793C19.3399 9.50238 19.3505 9.39336 19.3982 9.33038C19.7468 8.86973 19.7192 8.38125 19.5736 7.87392C19.5146 7.66815 19.5865 7.51682 19.8148 7.39161C19.9528 7.31595 20.0725 7.13656 20.0993 6.98909C20.2348 6.2442 20.1396 5.49936 20.0451 4.73254C20.0747 4.62569 20.0964 4.54197 20.1252 4.46026C20.3012 3.96042 20.4907 3.46396 20.6468 2.95924C20.6815 2.84705 20.6008 2.70633 20.5732 2.57874C20.4686 2.63155 20.3505 2.67047 20.2614 2.73931C19.3913 3.4116 18.526 4.08889 17.6358 4.77045C17.2695 5.12849 16.9266 5.48083 16.5751 5.85597C16.1414 6.46194 15.7149 7.04422 15.2918 7.62851C14.737 8.3947 14.1906 9.16578 13.6293 9.92809C13.3704 10.2797 13.0269 10.5007 12.514 10.4521C12.0367 10.4069 11.5545 10.403 11.0768 10.3596C10.9481 10.3478 10.7412 10.2747 10.7236 10.2007C10.694 10.076 10.7437 9.89613 10.8363 9.7954C11.1846 9.41634 11.6016 9.08435 11.9224 8.68908C12.3867 8.11695 12.7898 7.50514 13.219 6.91025C13.1868 6.88714 13.1547 6.86403 13.1225 6.84091C12.7571 6.97244 12.3918 7.10398 12.0182 7.21301C11.7984 6.9811 11.6133 6.74086 11.3666 6.57263C11.189 6.45148 10.9259 6.41761 10.9618 6.15352C10.9991 5.8792 11.099 5.60788 11.4236 5.51718C11.7791 5.41786 12.0434 5.25816 12.1945 4.9467C12.2273 4.87909 12.3281 4.8245 12.4113 4.79194C12.9031 4.59956 13.3965 4.40995 13.8944 4.23075C14.1627 4.13417 14.2726 3.98207 14.1829 3.72943C14.1829 3.72943 14.184 3.72403 14.213 3.72104C14.6431 3.65803 15.0422 3.57998 15.4459 3.54367C15.7731 3.51423 15.9789 3.37371 16.1936 3.15819C16.4156 2.93535 16.7206 2.76992 17.0124 2.61392C17.2429 2.49069 17.542 2.45906 17.7507 2.31664C18.0808 2.09139 18.3382 1.78126 18.6676 1.55496C19.0858 1.26765 19.5011 0.921143 20.1142 1.08651C20.3604 1.15291 20.5223 1.05351 20.6531 0.866838C20.915 0.493108 21.2694 0.302231 21.7792 0.454899C21.8581 0.478516 21.9449 0.480917 22.028 0.493131C22.6004 1.0241 22.8296 1.70249 23.0111 2.39047C23.3455 3.65785 23.3714 4.95399 23.292 6.24153C23.2207 7.39599 22.8411 8.50052 22.304 9.55729C21.7218 10.7025 20.9815 11.7517 19.9657 12.6307C19.7084 12.8534 19.4227 13.0549 19.1268 13.2357C18.7676 13.4552 18.7114 13.5773 18.8916 13.9282C19.3094 14.7418 19.7008 15.5668 19.7529 16.4749C19.8021 17.3334 19.8093 18.1938 19.8385 19.114C19.8398 19.3349 19.8358 19.4953 19.8356 19.6556C19.8346 20.7547 19.7285 21.8584 20.014 22.9452C20.1881 24.5013 20.9677 25.7796 22.2784 26.8569C22.5397 27.0145 22.643 26.8827 22.7326 26.7226C22.7326 26.7226 22.7505 26.7246 22.7918 26.7279C22.9273 26.7355 23.0216 26.7396 23.1159 26.7444C23.6384 26.7709 23.8056 26.6082 23.7283 26.1482C23.7283 26.1482 23.7273 26.1457 23.7545 26.1401C23.909 26.0311 24.0363 25.9276 24.1636 25.8241C24.1636 25.8241 24.1661 25.8261 24.1872 25.8174C24.2889 25.728 24.3695 25.6474 24.4501 25.5668C24.4501 25.5668 24.4499 25.5625 24.4772 25.5571C24.6122 25.505 24.7418 25.4786 24.8241 25.4081C25.3675 24.9427 25.928 24.4894 26.4262 23.9872C26.6895 23.722 26.9986 23.4078 26.7669 22.9808C26.7669 22.9808 26.7696 22.9836 26.7859 22.9703C26.8389 22.8946 26.8755 22.8323 26.9121 22.7699C26.9121 22.7699 26.9132 22.7471 26.9321 22.7235C26.986 22.6433 27.021 22.5867 27.056 22.53C27.056 22.53 27.0575 22.5304 27.0806 22.5221C27.2306 22.3824 27.3959 22.2673 27.4757 22.1161C27.5972 21.8861 27.6682 21.6332 27.7447 21.3861C27.8388 21.0819 27.9164 20.7737 28.0011 20.4672C28.0007 20.4559 28.0004 20.4445 28.0217 20.4083C28.0733 20.2753 28.1031 20.167 28.133 20.0588C28.1454 20.0105 28.1578 19.9623 28.2027 19.888C28.487 19.6922 28.745 19.5292 28.9874 19.3494C29.0821 19.2791 29.1419 19.1712 29.2175 19.0805C29.0742 19.0552 28.9317 19.0169 28.7871 19.0085C28.6708 19.0017 28.5519 19.0309 28.4341 19.0442C28.4359 19.0316 28.4378 19.019 28.4613 18.9761C29.0912 18.4765 29.1219 17.9058 28.9219 17.2533C28.8293 16.9512 28.8412 16.6031 28.9015 16.2906C28.9465 16.0577 28.9052 15.9699 28.6611 15.9118C28.656 15.7963 28.6532 15.7074 28.6739 15.618C28.7291 15.6161 28.7606 15.6149 28.8182 15.6222C29.2214 15.7551 29.6599 15.4646 30.1036 15.792C29.8697 15.792 29.7286 15.792 29.6174 15.792C29.6753 16.3171 29.7235 16.8238 29.7922 17.3283C29.8096 17.4567 29.892 17.5779 29.9446 17.7025C30.0581 17.5956 30.258 17.4957 30.2695 17.3808C30.3094 16.9802 30.2679 16.5737 30.2908 16.1709C30.3017 15.9812 30.3851 15.7939 30.4428 15.6073C30.4783 15.4926 30.5563 15.3827 30.5639 15.2679C30.5792 15.0377 30.5536 14.8056 30.5556 14.5743C30.5576 14.3238 30.5632 14.0726 30.5878 13.8234C30.5929 13.7715 30.6878 13.7267 30.7413 13.6787Z" fill="#EADDFF"/>
<path d="M14.1552 3.72717C14.2727 3.9821 14.1628 4.1342 13.8944 4.23078C13.3965 4.40998 12.9032 4.59959 12.4114 4.79197C12.3282 4.82453 12.2274 4.87912 12.1946 4.94673C12.0435 5.25819 11.7791 5.41789 11.4236 5.51721C11.0991 5.60791 10.9991 5.87924 10.9619 6.15355C10.926 6.41764 11.189 6.45151 11.3667 6.57267C11.6133 6.74089 11.7985 6.98113 11.9979 7.22541C11.1427 7.6171 10.3019 7.97846 9.45541 8.32876C9.06534 8.49018 8.66406 8.62996 8.25111 8.76353C7.93264 8.52519 7.70537 8.66157 7.43579 8.89155C7.57807 8.92627 7.67346 8.94954 7.74894 8.98652C7.34422 9.17837 6.96929 9.37688 6.57254 9.53037C5.76455 9.84298 5.26131 10.3942 4.99927 11.1199C4.84511 11.5469 4.79659 12.0041 4.64667 12.4326C4.35168 13.2757 3.91398 14.0429 3.05775 14.5595C2.79371 14.7187 2.81033 14.9928 3.12401 15.1592C4.3283 15.7979 5.56464 16.0958 6.95197 15.5597C7.53378 15.3348 8.19594 15.2405 8.83284 15.1767C9.31503 15.1283 9.76195 15.3216 10.1404 15.6276C11.1984 16.483 11.3999 17.5903 11.0079 18.7004C10.5436 20.0154 9.87072 21.2745 9.24046 22.5389C8.68752 23.6481 8.0723 24.7306 7.8369 25.9447C7.73458 26.4724 7.77835 26.6493 8.32239 26.8983C9.10797 27.2577 9.89986 27.6115 10.7136 27.9153C11.9321 28.3702 13.2224 28.5782 14.5356 28.6538C16.1194 28.7449 17.6797 28.6008 19.1977 28.1783C20.0245 27.9481 20.0775 28.0311 19.6046 27.3468C19.5983 27.3377 19.5945 27.3273 19.5895 27.3175C19.9202 27.3693 20.0267 27.5974 20.0725 27.8464C20.0871 27.926 20.0187 28.0713 19.9456 28.1002C19.7223 28.1885 19.7199 28.3353 19.7034 28.5165C19.6824 28.7469 19.603 28.9732 19.5149 29.2282C19.0183 29.3546 18.5508 29.4471 18.1579 29.1046C17.8206 28.8106 17.4563 28.6706 16.9934 28.8515C16.9447 28.8705 16.8714 28.857 16.8155 28.8414C15.894 28.5844 14.9829 28.8122 14.0706 28.8962C13.9531 28.907 13.7535 29.0352 13.7586 29.0983C13.7676 29.2102 13.8896 29.3279 13.9934 29.4157C14.0552 29.4681 14.1714 29.4846 14.2649 29.489C15.0572 29.5262 15.8496 29.5731 16.6425 29.5818C16.9685 29.5853 17.1735 29.6735 17.2756 29.9479C17.3136 30.05 17.36 30.1496 17.3975 30.2518C17.478 30.4715 17.6712 30.5913 17.8955 30.5217C18.1117 30.4545 18.4467 30.2984 18.4557 30.1663C18.4841 29.7507 18.7557 29.7629 19.07 29.7672C19.2265 29.7694 19.3831 29.7674 19.5397 29.7673C19.6677 29.7129 19.7937 29.6545 19.9242 29.6054C20.0652 29.5523 20.2066 29.4948 20.3543 29.4626C20.6857 29.3903 21.0208 29.3317 21.3549 29.2693C21.4244 29.2563 21.5225 29.2197 21.5619 29.2468C21.9111 29.4866 22.3019 29.389 22.7087 29.3799C22.2624 29.5993 21.7902 29.8132 21.2904 30.0093C21.1757 29.9149 21.0989 29.7924 20.9987 29.7745C20.8946 29.7558 20.7679 29.8384 20.651 29.8766C20.715 29.9698 20.7789 30.0629 20.8428 30.156C19.533 30.5924 18.187 30.8757 16.7398 30.9013C16.5683 30.8334 16.4438 30.751 16.3152 30.7454C15.9088 30.7278 15.5002 30.7289 15.0936 30.7447C14.9601 30.7498 14.8299 30.822 14.6643 30.8639C14.0511 30.8423 13.4719 30.8204 12.8926 30.7984C11.9218 30.607 10.9314 30.4719 9.98479 30.2105C8.69493 29.8543 7.49874 29.299 6.40601 28.5773C4.80537 27.5201 3.44108 26.2552 2.34308 24.7775C1.96353 24.2667 1.68066 23.6814 1.46109 23.0978C1.25862 22.5597 1.5011 22.1364 1.95508 21.9489C2.58813 21.6875 3.14344 21.7727 3.52114 22.2523C3.97415 22.8276 4.37108 23.4379 4.80801 24.0237C5.02109 24.3094 5.26984 24.5738 5.53309 24.8725C5.89174 24.8819 5.96344 24.7728 5.94719 24.3133C5.94719 24.3133 5.94451 24.2962 5.96328 24.2736C5.99558 24.2256 6.00911 24.2 6.02263 24.1744C6.02263 24.1744 6.01592 24.1666 6.03896 24.1517C6.12056 23.9839 6.17913 23.831 6.23769 23.6781C6.24037 23.6665 6.24306 23.6549 6.26069 23.616C6.30763 23.569 6.33963 23.5493 6.37163 23.5296C6.63057 22.9154 6.87604 22.2962 7.15412 21.689C7.29326 21.3851 7.49192 21.103 7.69176 20.776C7.89968 20.3455 8.0795 19.9502 8.25932 19.5548C8.25932 19.5548 8.26076 19.5591 8.27911 19.5488C8.35843 19.4366 8.4194 19.3348 8.48037 19.233C8.48037 19.233 8.48237 19.2385 8.48684 19.2246C8.50944 19.1822 8.52756 19.1538 8.54568 19.1254C8.64143 18.8706 8.73718 18.6157 8.85518 18.3189C9.14351 17.705 9.0741 17.1716 8.69122 16.8459C8.41197 16.7433 8.15666 16.7552 7.86848 16.8744C7.03494 17.2189 6.15978 17.4265 5.23396 17.4842C3.7503 17.5768 2.48098 17.076 1.27343 16.3965C0.972058 16.227 0.70401 16.0038 0.444067 15.7832C0.0888529 15.4818 -0.0888436 15.0809 0.044046 14.67C0.128843 14.4078 0.386499 14.1698 0.619937 13.9709C1.00026 13.6469 1.44617 13.3837 1.82111 13.0554C2.03406 12.8689 2.23688 12.622 2.31169 12.3708C2.5021 11.7314 2.61794 11.0742 2.7637 10.4242C2.78254 10.3401 2.78155 10.2468 2.824 10.1736C3.18173 9.55689 3.44535 8.88383 4.05799 8.41377C4.26437 8.25543 4.5109 8.13888 4.78471 8.00136C5.00982 7.99843 5.1893 7.99735 5.35797 8.01614C5.16158 8.17287 4.976 8.30973 4.77389 8.46306C4.4395 8.83307 4.39087 9.23634 4.521 9.65568C4.5479 9.74237 4.69792 9.79855 4.81312 9.85883C5.09345 9.74783 5.34255 9.60566 5.61277 9.55678C5.91182 9.50268 6.10572 9.40186 6.15738 9.12785C6.20943 8.85176 6.40265 8.7497 6.69937 8.69422C6.8861 8.65931 7.08991 8.54016 7.20894 8.40469C7.48972 8.08514 8.05187 7.88565 8.50555 7.93995C9.71711 8.08496 9.94409 8.05451 10.3974 7.13493C10.4119 7.10548 10.4326 7.07852 10.4481 7.04942C10.6016 6.76152 10.4783 6.50822 10.1259 6.4874C9.47934 6.4492 8.82972 6.45202 8.18135 6.43774C8.55023 6.24631 8.90995 6.03878 9.28969 5.86646C10.4508 5.33958 11.6213 4.82919 12.7844 4.30586C13.1471 4.14266 13.4962 3.95531 13.8561 3.7869C13.9366 3.74923 14.0366 3.74468 14.1552 3.72717Z" fill="#EADDFF"/>
<path d="M30.7338 13.6557C30.6879 13.7267 30.593 13.7715 30.5879 13.8233C30.5633 14.0726 30.5577 14.3237 30.5556 14.5743C30.5537 14.8055 30.5793 15.0377 30.564 15.2679C30.5564 15.3827 30.4783 15.4925 30.4429 15.6073C30.3852 15.7939 30.3018 15.9811 30.2909 16.1709C30.268 16.5736 30.3095 16.9802 30.2696 17.3807C30.2581 17.4957 30.0582 17.5956 29.9447 17.7024C29.8921 17.5779 29.8097 17.4566 29.7922 17.3283C29.7236 16.8238 29.6754 16.3171 29.6175 15.7919C29.7287 15.7919 29.8697 15.7919 30.1037 15.7919C29.66 15.4645 29.2214 15.7551 28.8181 15.6027C28.7915 15.5488 28.7914 15.5228 28.7857 15.4752C28.7108 15.379 28.6416 15.3044 28.5688 15.2088C28.5652 15.1597 28.5652 15.1314 28.5824 15.0979C28.5944 15.0308 28.5892 14.9691 28.584 14.9073C28.47 14.5769 28.3559 14.2465 28.2402 13.8747C28.22 13.6993 28.2014 13.5653 28.204 13.4238C28.263 13.3704 28.3009 13.3244 28.3387 13.2784C28.2482 13.24 28.1576 13.2016 28.0589 13.1422C28.0334 13.0491 28.0161 12.977 28.0219 12.9092C28.1453 12.9057 28.2458 12.8979 28.3463 12.8901C28.3489 12.8472 28.3514 12.8043 28.354 12.7613C28.2284 12.7469 28.1029 12.7325 27.9763 12.7108C27.9754 12.7036 27.9833 12.6908 27.9833 12.6613C27.9554 12.4738 27.928 12.3158 27.8993 12.158C27.8577 11.9287 27.7622 11.7447 27.4348 11.7293C27.3124 11.5167 27.2097 11.3174 27.107 11.118C26.6263 10.79 26.4485 10.3127 26.3472 9.81486C26.3013 9.58881 26.303 9.33321 26.3735 9.11429C26.5546 8.55214 27.3479 8.32521 27.9513 8.60105C28.4245 8.81737 28.682 9.19562 28.9094 9.57567C29.6815 10.8664 30.3201 12.2091 30.7338 13.6557Z" fill="#EADDFF"/>
<path d="M8.18241 6.43873C8.82982 6.452 9.47944 6.44918 10.126 6.48738C10.4784 6.5082 10.6017 6.7615 10.4482 7.0494C10.4327 7.0785 10.412 7.10546 10.3975 7.13491C9.9442 8.05449 9.71722 8.08493 8.50565 7.93993C8.05197 7.88563 7.48982 8.08512 7.20904 8.40467C7.09002 8.54014 6.88621 8.65929 6.69947 8.6942C6.40275 8.74968 6.20953 8.85174 6.15748 9.12783C6.10583 9.40184 5.91192 9.50266 5.61287 9.55676C5.34265 9.60564 5.09356 9.74781 4.81827 9.83572C4.9277 9.69214 5.04464 9.55301 5.18295 9.43367C5.31787 9.31725 5.50594 9.24186 5.61467 9.11123C5.79053 8.89998 5.70565 8.73011 5.43099 8.64768C5.2165 8.5833 5.00394 8.51379 4.79053 8.44656C4.97611 8.30971 5.16168 8.17285 5.37051 8.0013C5.43371 7.933 5.47367 7.8994 5.52644 7.88406C5.85786 8.2191 5.86109 8.19319 6.15393 7.88999C6.31649 7.72167 6.59427 7.60427 6.84322 7.55232C7.04835 7.50951 7.14324 7.44561 7.16099 7.27836C7.17676 7.12986 7.17273 6.97967 7.17744 6.83023C7.37681 6.74638 7.57617 6.66253 7.80724 6.58856C8.09108 6.78159 8.13106 6.59827 8.18473 6.4386C8.18473 6.4386 8.18337 6.43975 8.18241 6.43873Z" fill="#EADDFF"/>
<path d="M22.0163 0.472389C21.9448 0.480918 21.858 0.478517 21.7791 0.454901C21.2694 0.302233 20.915 0.493109 20.6531 0.866839C20.5223 1.05351 20.3603 1.15291 20.1141 1.08651C19.501 0.921144 19.0858 1.26765 18.6676 1.55496C18.3382 1.78127 18.0807 2.09139 17.7506 2.31664C17.5419 2.45906 17.2428 2.49069 17.0123 2.61392C16.7205 2.76992 16.4155 2.93535 16.1935 3.15819C15.9788 3.37371 15.7731 3.51424 15.4459 3.54367C15.0421 3.57998 14.643 3.65803 14.2159 3.72155C14.4001 3.59839 14.6055 3.46484 14.8212 3.34626C15.8886 2.75947 16.9795 2.20432 18.0198 1.58153C18.5997 1.23433 19.0863 0.765051 19.6342 0.372105C20.3762 -0.160101 21.3777 -0.116804 22.0163 0.472389Z" fill="#EADDFF"/>
<path d="M7.15185 6.83521C7.17255 6.97964 7.17658 7.12982 7.16081 7.27833C7.14305 7.44557 7.04817 7.50947 6.84303 7.55228C6.59408 7.60424 6.31631 7.72163 6.15374 7.88996C5.86091 8.19315 5.85767 8.21907 5.509 7.86849C5.38745 7.80084 5.29596 7.767 5.20447 7.73315C5.84513 7.43551 6.48579 7.13786 7.15185 6.83521Z" fill="#EADDFF"/>
<path d="M26.7504 22.997C26.9986 23.4078 26.6895 23.722 26.4262 23.9872C25.9279 24.4894 25.3675 24.9427 24.8241 25.4081C24.7418 25.4786 24.6122 25.505 24.4796 25.5572C24.5966 25.3986 24.7258 25.224 24.8832 25.0729C25.1344 24.8316 25.4042 24.606 25.6913 24.3463C25.7306 24.306 25.7444 24.2925 25.7576 24.2786C26.0831 23.8568 26.4085 23.435 26.7504 22.997Z" fill="#EADDFF"/>
<path d="M28.6634 15.9384C28.9052 15.9699 28.9465 16.0577 28.9015 16.2906C28.8412 16.6031 28.8293 16.9511 28.9219 17.2532C29.1219 17.9058 29.0912 18.4765 28.4646 18.9573C28.466 18.854 28.4857 18.7395 28.5205 18.5777C28.5718 18.3089 28.6328 18.0877 28.6396 17.8652C28.6592 17.2232 28.657 16.5807 28.6634 15.9384Z" fill="#EADDFF"/>
<path d="M28.4222 19.0656C28.5519 19.0309 28.6708 19.0017 28.7872 19.0085C28.9318 19.0169 29.0742 19.0551 29.2176 19.0805C29.1419 19.1712 29.0821 19.2791 28.9874 19.3494C28.745 19.5292 28.487 19.6922 28.2115 19.8712C28.262 19.616 28.3361 19.3516 28.4222 19.0656Z" fill="#EADDFF"/>
<path d="M12.9185 30.8091C13.4719 30.8204 14.0512 30.8423 14.6979 30.8643C15.3886 30.8844 16.0119 30.9045 16.6351 30.9245C16.579 30.9421 16.5231 30.9741 16.4665 30.9751C15.2886 30.9952 14.1074 31.0684 12.9185 30.8091Z" fill="#EADDFF"/>
<path d="M27.9896 20.4879C27.9165 20.7737 27.8389 21.082 27.7448 21.3861C27.6684 21.6333 27.5973 21.8861 27.4758 22.1161C27.396 22.2673 27.2308 22.3825 27.0798 22.5215C27.3157 21.9529 27.5751 21.3764 27.8358 20.8003C27.8803 20.702 27.9304 20.6058 27.9896 20.4879Z" fill="#EADDFF"/>
<path d="M23.7039 26.1526C23.8057 26.6082 23.6385 26.7709 23.116 26.7444C23.0218 26.7396 22.9274 26.7355 22.8007 26.7297C23.072 26.5378 23.3757 26.3474 23.7039 26.1526Z" fill="#EADDFF"/>
<path d="M28.6613 15.9118C28.6572 16.5807 28.6594 17.2232 28.6398 17.8652C28.633 18.0877 28.572 18.3089 28.5259 18.5529C28.5354 17.7986 28.561 17.0222 28.5716 16.2456C28.5768 15.8653 28.5541 15.4847 28.5545 15.0928C28.565 15.0814 28.5654 15.1033 28.5654 15.1033C28.5653 15.1315 28.5653 15.1597 28.5705 15.2309C28.5962 15.345 28.6165 15.416 28.6334 15.5002C28.6367 15.5485 28.6436 15.5835 28.6505 15.6186C28.6534 15.7074 28.6563 15.7963 28.6613 15.9118Z" fill="#EADDFF"/>
<path d="M16.6565 30.9235C16.0118 30.9044 15.3886 30.8843 14.7317 30.8639C14.8298 30.822 14.9601 30.7498 15.0936 30.7446C15.5002 30.7288 15.9087 30.7277 16.3152 30.7453C16.4438 30.7509 16.5683 30.8333 16.7075 30.8999C16.7062 30.9204 16.692 30.9214 16.6565 30.9235Z" fill="#EADDFF"/>
<path d="M27.1229 11.137C27.2098 11.3174 27.3125 11.5167 27.4392 11.7538C27.5848 12.0671 27.7065 12.3426 27.8155 12.6439C27.7947 12.6873 27.7866 12.7047 27.7786 12.7221C27.5759 12.3116 27.3662 11.9036 27.1757 11.4886C27.1304 11.3899 27.1494 11.2675 27.1229 11.137Z" fill="#EADDFF"/>
<path d="M20.8616 30.1501C20.7789 30.0628 20.7149 29.9696 20.651 29.8765C20.7678 29.8383 20.8946 29.7557 20.9987 29.7744C21.0989 29.7923 21.1756 29.9148 21.2641 30.0148C21.2655 30.0383 21.2502 30.0359 21.2113 30.0329C21.1102 30.0284 21.048 30.027 20.9832 30.0241C20.9806 30.0226 20.9856 30.0259 20.9863 30.0444C20.9876 30.0752 20.9882 30.0875 20.9888 30.0998C20.9527 30.1147 20.9166 30.1295 20.8616 30.1501Z" fill="#EADDFF"/>
<path d="M27.7799 12.7462C27.7864 12.7047 27.7945 12.6873 27.8337 12.6549C27.9042 12.6569 27.9437 12.6739 27.9831 12.6908C27.9831 12.6908 27.9752 12.7036 27.9801 12.7341C27.9896 12.8113 27.9941 12.8582 27.9987 12.905C28.016 12.9771 28.0332 13.0491 28.0609 13.1631C28.1084 13.2805 28.1455 13.3559 28.1826 13.4313C28.2012 13.5653 28.2198 13.6993 28.2268 13.8535C28.0705 13.506 27.926 13.1381 27.7799 12.7462Z" fill="#EADDFF"/>
<path d="M8.23532 19.5632C8.07962 19.9501 7.8998 20.3455 7.71045 20.7597C7.87102 20.3762 8.04112 19.974 8.23532 19.5632Z" fill="#EADDFF"/>
<path d="M5.18489 7.74353C5.29599 7.76703 5.38748 7.80088 5.49623 7.85026C5.47352 7.8994 5.43356 7.933 5.38117 7.98143C5.18925 7.99733 5.00977 7.99841 4.80945 7.9958C4.91417 7.9127 5.03972 7.83328 5.18489 7.74353Z" fill="#EADDFF"/>
<path d="M5.92367 24.3281C5.96337 24.7727 5.89167 24.8819 5.54614 24.8929C5.92054 24.8526 5.76135 24.5168 5.92367 24.3281Z" fill="#EADDFF"/>
<path d="M8.15882 6.43939C8.1308 6.59819 8.09082 6.78151 7.83252 6.58347C7.92862 6.52581 8.03089 6.48304 8.15882 6.43939Z" fill="#EADDFF"/>
<path d="M24.1382 25.8275C24.0365 25.9276 23.9092 26.031 23.7562 26.1402C23.6944 25.8826 23.9845 25.9352 24.1382 25.8275Z" fill="#EADDFF"/>
<path d="M22.7054 26.7237C22.643 26.8828 22.5397 27.0145 22.2964 26.8708C22.4142 26.8126 22.5462 26.7686 22.7054 26.7237Z" fill="#EADDFF"/>
<path d="M6.21591 23.6921C6.17904 23.8309 6.12048 23.9839 6.03833 24.1468C6.07457 24.0066 6.13439 23.8564 6.21591 23.6921Z" fill="#EADDFF"/>
<path d="M28.1182 20.0775C28.1031 20.167 28.0733 20.2753 28.0216 20.3913C28.0343 20.2981 28.0689 20.1972 28.1182 20.0775Z" fill="#EADDFF"/>
<path d="M24.4254 25.5665C24.3696 25.6474 24.289 25.728 24.1864 25.8163C24.2431 25.738 24.3218 25.6521 24.4254 25.5665Z" fill="#EADDFF"/>
<path d="M8.45308 19.233C8.41945 19.3347 8.35849 19.4366 8.27673 19.5493C8.31254 19.4511 8.36915 19.3421 8.45308 19.233Z" fill="#EADDFF"/>
<path d="M28.5822 15.0979C28.565 15.1033 28.5647 15.0815 28.5671 15.0708C28.5729 15.0262 28.5762 14.9922 28.5817 14.9329C28.589 14.9691 28.5942 15.0308 28.5822 15.0979Z" fill="#EADDFF"/>
<path d="M26.8942 22.7845C26.8754 22.8323 26.8388 22.8946 26.7838 22.9704C26.8024 22.9223 26.8393 22.8607 26.8942 22.7845Z" fill="#EADDFF"/>
<path d="M27.0361 22.5398C27.0211 22.5867 26.986 22.6433 26.9335 22.7122C26.9493 22.6661 26.9827 22.6078 27.0361 22.5398Z" fill="#EADDFF"/>
<path d="M6.35938 23.5364C6.33966 23.5493 6.30765 23.5692 6.26672 23.5995C6.28757 23.5877 6.31733 23.5655 6.35938 23.5364Z" fill="#EADDFF"/>
<path d="M21.0145 30.0973C20.9882 30.088 20.9877 30.0756 20.9864 30.0445C20.9858 30.0258 20.9858 30.0257 20.9858 30.0257C21.048 30.0271 21.1102 30.0285 21.2039 30.031C21.1703 30.0527 21.1053 30.0734 21.0145 30.0973Z" fill="#EADDFF"/>
<path d="M8.53238 19.1371C8.52765 19.1538 8.50953 19.1822 8.48389 19.2256C8.49057 19.2099 8.50478 19.1794 8.53238 19.1371Z" fill="#EADDFF"/>
<path d="M6.00723 24.1903C6.0092 24.2 5.99568 24.2257 5.96431 24.2655C5.96155 24.2551 5.97664 24.2307 6.00723 24.1903Z" fill="#EADDFF"/>
<path d="M25.7463 24.2877C25.7445 24.2925 25.7308 24.3061 25.7057 24.3288C25.7067 24.3234 25.72 24.3095 25.7463 24.2877Z" fill="#EADDFF"/>
<path d="M18.3791 10.8509C18.4674 10.7312 18.553 10.6335 18.6386 10.5359C17.0566 10.8907 15.5284 11.3355 13.952 11.6075C13.9309 11.5791 13.9098 11.5506 13.8887 11.5222C13.9678 11.4289 14.0279 11.3125 14.1291 11.2457C15.2279 10.5203 16.1289 9.60935 17.0763 8.74263C17.3192 8.52034 17.5373 8.27445 17.7493 8.02732C18.1356 7.57675 18.5464 7.13784 18.8779 6.65608C19.2916 6.05488 19.6353 5.41528 20.0248 4.77441C20.1397 5.49933 20.2349 6.24417 20.0994 6.98905C20.0725 7.13652 19.9529 7.31591 19.8149 7.39157C19.5866 7.51678 19.5147 7.66812 19.5737 7.87389C19.7192 8.38122 19.7468 8.8697 19.3983 9.33035C19.3506 9.39333 19.3399 9.50235 19.3611 9.57926C19.4691 9.97105 19.5995 10.3579 19.7067 10.7499C19.7293 10.8324 19.7196 10.9472 19.6702 11.0159C19.4757 11.2864 19.41 11.5436 19.7229 11.8066C19.3117 11.9556 19.0245 11.8364 18.7186 11.5851C18.7186 11.66 18.6897 11.7483 18.7239 11.8073C18.8408 12.0092 18.7413 12.1628 18.5654 12.2428C18.3666 12.3332 18.1337 12.3882 17.9119 12.3994C17.8411 12.403 17.6719 12.1916 17.6975 12.1238C17.7715 11.9281 17.8761 11.6969 18.0524 11.5869C18.36 11.3952 18.2819 11.1131 18.3791 10.8509ZM18.9056 11.0157C18.8985 10.9586 18.8915 10.9015 18.8845 10.8445C18.8378 10.8671 18.7911 10.8898 18.7445 10.9124C18.788 10.9519 18.8314 10.9914 18.9056 11.0157Z" fill="#EADDFF"/>
<path d="M19.5396 29.7386C19.383 29.7674 19.2264 29.7693 19.0699 29.7672C18.7556 29.7629 18.4841 29.7507 18.4556 30.1663C18.4466 30.2983 18.1116 30.4545 17.8954 30.5216C17.6711 30.5913 17.4779 30.4714 17.3974 30.2518C17.3599 30.1496 17.3135 30.05 17.2755 29.9479C17.1734 29.6735 16.9684 29.5853 16.6424 29.5817C15.8495 29.5731 15.0571 29.5262 14.2648 29.489C14.1714 29.4846 14.0551 29.468 13.9933 29.4157C13.8895 29.3279 13.7675 29.2102 13.7585 29.0983C13.7534 29.0352 13.953 28.907 14.0705 28.8962C14.9828 28.8122 15.8939 28.5844 16.8154 28.8414C16.8713 28.8569 16.9446 28.8705 16.9933 28.8514C17.4562 28.6706 17.8205 28.8106 18.1578 29.1046C18.5507 29.447 19.0183 29.3546 19.5103 29.2525C19.5396 29.4032 19.5396 29.5566 19.5396 29.7386Z" fill="#EADDFF"/>
<path d="M17.6078 20.3225C17.6077 19.4662 17.606 18.5888 17.5947 17.7114C17.59 17.3522 17.5643 16.9933 17.5455 16.6099C17.5627 17.8242 17.5825 19.0627 17.6078 20.3225Z" fill="#EADDFF"/>
<path d="M28.6739 15.6179C28.6434 15.5835 28.6365 15.5485 28.6589 15.5018C28.7225 15.4923 28.7569 15.4945 28.7912 15.4967C28.7913 15.5228 28.7914 15.5488 28.7918 15.5943C28.7606 15.6149 28.7291 15.6161 28.6739 15.6179Z" fill="#EADDFF"/>
<path d="M19.5257 27.2511C19.512 27.2336 19.4903 27.1964 19.4629 27.1386C19.4773 27.1558 19.4975 27.1936 19.5257 27.2511Z" fill="#EADDFF"/>
<path d="M4.77382 8.46301C5.00377 8.51376 5.21633 8.58327 5.43082 8.64765C5.70547 8.73008 5.79035 8.89995 5.6145 9.1112C5.50576 9.24183 5.3177 9.31722 5.18278 9.43364C5.04446 9.55298 4.92752 9.69211 4.79618 9.84566C4.69785 9.7985 4.54783 9.74232 4.52093 9.65563C4.3908 9.23629 4.43943 8.83302 4.77382 8.46301Z" fill="#EADDFF"/>
<path d="M7.83004 8.95966C7.83004 8.95966 7.79932 8.96598 7.78409 8.96942C7.67347 8.94958 7.57807 8.92631 7.43579 8.89159C7.70537 8.66161 7.93264 8.52524 8.25111 8.76357C8.26787 8.7796 8.26125 8.78048 8.23376 8.77862C8.08086 8.83772 7.95545 8.89869 7.83004 8.95966Z" fill="#EADDFF"/>
<path d="M27.9832 12.6613C27.9438 12.6739 27.9043 12.6569 27.8464 12.629C27.7064 12.3426 27.5847 12.0671 27.4587 11.7671C27.7622 11.7448 27.8576 11.9288 27.8993 12.1581C27.9279 12.3159 27.9553 12.4739 27.9832 12.6613Z" fill="#EADDFF"/>
<path d="M28.0218 12.9092C27.9943 12.8582 27.9897 12.8113 27.9812 12.7413C28.1029 12.7325 28.2284 12.7469 28.354 12.7614C28.3514 12.8043 28.3488 12.8472 28.3463 12.8902C28.2458 12.8979 28.1453 12.9057 28.0218 12.9092Z" fill="#EADDFF"/>
<path d="M28.2039 13.4239C28.1456 13.3559 28.1085 13.2805 28.0692 13.1841C28.1576 13.2016 28.2482 13.2401 28.3387 13.2785C28.3009 13.3245 28.263 13.3704 28.2039 13.4239Z" fill="#EADDFF"/>
<path d="M28.7856 15.4751C28.7569 15.4945 28.7226 15.4923 28.6625 15.4885C28.6164 15.4159 28.596 15.3449 28.574 15.2518C28.6416 15.3043 28.7108 15.3789 28.7856 15.4751Z" fill="#EADDFF"/>
<path d="M20.9867 30.0269C20.9867 30.0269 20.98 30.0222 20.9834 30.0244C20.9869 30.0266 20.9867 30.0269 20.9867 30.0269Z" fill="#EADDFF"/>
<path d="M6.76155 13.4797C6.53301 12.5673 7.62789 11.5051 8.61056 11.7001C9.07696 11.7926 9.51774 12.0099 9.95105 12.2045C10.1596 12.2982 10.1397 12.4762 9.93837 12.5873C9.01844 13.095 8.0353 13.4506 6.94862 13.5424C6.89449 13.547 6.83631 13.5133 6.76155 13.4797Z" fill="#EADDFF"/>
<path d="M7.85437 8.95636C7.95543 8.89863 8.08084 8.83766 8.23239 8.77582C8.13193 8.83434 8.00533 8.89374 7.85437 8.95636Z" fill="#EADDFF"/>
<path d="M18.8903 11.0234C18.8315 10.9915 18.788 10.952 18.7445 10.9125C18.7912 10.8898 18.8379 10.8672 18.8845 10.8445C18.8916 10.9016 18.8986 10.9587 18.8903 11.0234Z" fill="#EADDFF"/>
</svg>
